# xmcd
#
# Track frame offsets: 
#        150
#        15988
#        32207
#        57962
#        69464
#        88668
#        116699
#        140854
#        158519
#        175181
#        193500
#        213838
#        231500
#        252715
#        269394
#        294247
#        319051
#
# Disc length: 4518 seconds
#
# Revision: 0
# Processed by: cddbd v1.5.2PL0 Copyright (c) Steve Scherf et al.
# Submitted via: ExactAudioCopy v0.99pb5
#
DISCID=f711a411
DTITLE=K- Solo - Tell The World My Name ()
DYEAR=2009
DGENRE=Hip-Hop
TTITLE0=Spellbound
TTITLE1=Rockin' For My Hometown
TTITLE2=Everybody Knows Me
TTITLE3=Speed Blocks
TTITLE4=Fugitive
TTITLE5=Tales From The Crack Side
TTITLE6=Your Mom's In My Business
TTITLE7=Real Solo Please Stand Up
TTITLE8=Renee-Renee
TTITLE9=Solo Rocks The House
TTITLE10=The Messenger
TTITLE11=Drums Of Death
TTITLE12=Fugitive (Super Extended Remix)
TTITLE13=Fugitive (A Capella)
TTITLE14=Your Mom's In My Business (Remix 1)
TTITLE15=Your Mom's In My Business (Remix 1 Instrumental)
TTITLE16=Your Mom's In My Business (Remix 2)
EXTD=
EXTT0=
EXTT1=
EXTT2=
EXTT3=
EXTT4=
EXTT5=
EXTT6=
EXTT7=
EXTT8=
EXTT9=
EXTT10=
EXTT11=
EXTT12=
EXTT13=
EXTT14=
EXTT15=
EXTT16=
PLAYORDER=
